<svg xmlns="http://www.w3.org/2000/svg" width="273" height="26" viewBox="0 0 273 26">
    <g fill="none">
        <path fill="#212022" d="M13.984 24.446l3.296-8.128 3.328 8.128h5.408l8.576-22.72h-6.784l-4.896 15.488-1.632-4.64 3.84-10.848h-5.728L17.28 8.734 15.2 1.726H9.472l3.776 10.848-1.568 4.64L6.752 1.726H0l8.576 22.72h5.408zm26.528 0l1.344-4.448h6.048l1.376 4.448h6.336l-7.232-22.72h-6.976l-7.264 22.72h6.368zm6.4-8.608h-4.128l2.112-8 2.016 8zm21.76 8.608V7.166H75.2v-5.44H55.872v5.44h6.56v17.28h6.24zm18.976.192c1.301 0 2.613-.208 3.936-.624 1.323-.416 2.507-1.019 3.552-1.808 1.045-.79 1.792-1.739 2.24-2.848l-5.088-3.04c-.256.683-.63 1.227-1.12 1.632-.49.405-1.035.699-1.632.88-.597.181-1.184.272-1.76.272-.81 0-1.541-.16-2.192-.48-.65-.32-1.2-.763-1.648-1.328-.448-.565-.79-1.21-1.024-1.936-.235-.725-.352-1.483-.352-2.272 0-.704.101-1.408.304-2.112.203-.704.512-1.344.928-1.92.416-.576.95-1.04 1.6-1.392.65-.352 1.424-.528 2.32-.528.576 0 1.168.08 1.776.24.608.16 1.173.443 1.696.848.523.405.923.981 1.2 1.728l4.768-3.392c-.79-1.493-1.995-2.693-3.616-3.6s-3.52-1.36-5.696-1.36c-1.813 0-3.44.325-4.88.976-1.44.65-2.661 1.52-3.664 2.608-1.003 1.088-1.765 2.299-2.288 3.632-.523 1.333-.784 2.693-.784 4.08 0 1.45.277 2.875.832 4.272.555 1.397 1.339 2.656 2.352 3.776 1.013 1.12 2.219 2.016 3.616 2.688 1.397.672 2.939 1.008 4.624 1.008zm18.176-.192V15.55h7.616v8.896h6.24V1.726h-6.24v8.384h-7.616V1.726h-6.24v22.72h6.24z" transform="translate(.616 .554)"/>
        <path fill="#651FFF" d="M138.522 24.786c1.519 0 3.026-.289 4.522-.867.499-.193.983-.42 1.453-.68l.267-.154 1.272 1.361h8.466l-5.388-5.687.03-.05c.289-.486.553-1.002.795-1.549l.177-.415c.748-1.825 1.133-3.972 1.156-6.443h-5.202c0 1.564-.21 2.935-.629 4.114l-.126.335-2.822-2.979.026-.022.372-.326c.85-.77 1.519-1.62 2.006-2.55.487-.93.731-1.95.731-3.06 0-1.383-.351-2.499-1.054-3.349-.703-.85-1.592-1.473-2.669-1.87S139.701 0 138.522 0c-1.337 0-2.544.244-3.621.731s-1.921 1.196-2.533 2.125c-.612.93-.918 2.051-.918 3.366 0 .748.119 1.44.357 2.074.238.635.64 1.315 1.207 2.04.126.161.261.33.406.505l.029.036-.299.241c-.774.635-1.439 1.365-1.995 2.19l-.232.36c-.6.975-.901 2.12-.901 3.434 0 1.247.317 2.46.952 3.638.635 1.179 1.587 2.148 2.856 2.907 1.27.76 2.833 1.139 4.692 1.139zm-.089-17.194l-.04-.036c-.369-.33-.637-.599-.806-.807-.193-.238-.289-.504-.289-.799 0-.25.045-.465.136-.646.09-.181.232-.329.425-.442.193-.113.414-.17.663-.17.363 0 .652.102.867.306.215.204.323.499.323.884s-.13.72-.391 1.003c-.196.213-.48.44-.854.685l-.034.022zm.769 12.162c-.725 0-1.309-.153-1.751-.459-.442-.306-.76-.669-.952-1.088-.193-.42-.289-.788-.289-1.105 0-.453.159-.867.476-1.241.181-.214.405-.427.672-.641l.03-.024 3.837 4.104-.226.094c-.528.206-1.044.323-1.547.353l-.25.007z" transform="translate(.616 .554)"/>
        <path fill="#212022" d="M179.994 24.446v-5.44H169.69V1.726h-6.24v22.72h16.544zm8.416 0V1.726h-6.24v22.72h6.24zm12.256.288c1.067 0 2.112-.123 3.136-.368s1.952-.645 2.784-1.2c.832-.555 1.493-1.296 1.984-2.224.49-.928.736-2.075.736-3.44 0-1.43-.277-2.576-.832-3.44-.555-.864-1.344-1.573-2.368-2.128-1.024-.555-2.24-1.045-3.648-1.472-.875-.277-1.627-.512-2.256-.704-.63-.192-1.115-.405-1.456-.64-.341-.235-.512-.544-.512-.928 0-.405.17-.693.512-.864.341-.17.779-.256 1.312-.256.683 0 1.376.107 2.08.32.704.213 1.355.453 1.952.72.597.267 1.077.507 1.44.72l.544.32 2.688-5.152c-.683-.341-1.477-.704-2.384-1.088-.907-.384-1.877-.71-2.912-.976-1.035-.267-2.107-.4-3.216-.4-1.493 0-2.885.293-4.176.88-1.29.587-2.33 1.445-3.12 2.576-.79 1.13-1.184 2.539-1.184 4.224 0 1.11.203 2.053.608 2.832.405.779 1.035 1.45 1.888 2.016.853.565 1.941 1.072 3.264 1.52.917.299 1.755.56 2.512.784.757.224 1.37.459 1.84.704.47.245.704.592.704 1.04 0 .299-.133.539-.4.72-.267.181-.741.272-1.424.272-.875 0-1.744-.128-2.608-.384-.864-.256-1.648-.544-2.352-.864-.704-.32-1.27-.608-1.696-.864l-.64-.384-2.688 5.472c.917.533 1.93.997 3.04 1.392 1.11.395 2.256.704 3.44.928 1.184.224 2.32.336 3.408.336zm22.56-.288V7.166h6.528v-5.44h-19.328v5.44h6.56v17.28h6.24zm24.992 0v-5.44h-9.952v-3.584h8.256v-5.056h-8.256v-3.2h9.664v-5.44h-15.904v22.72h16.192zm9.152 0V13.278l9.024 11.168h4.96V1.726h-6.24v11.552l-9.12-11.552h-4.864v22.72h6.24z" transform="translate(.616 .554)"/>
    </g>
</svg>