<?xml version="1.0" encoding="UTF-8"?> <svg xmlns="http://www.w3.org/2000/svg" id="Capa_1" height="512" viewBox="0 0 512 512" width="512"> <g> <path d="m507.959 125.941c-4.712-10.511-13.209-18.599-23.925-22.775-19.338-7.534-46.345-1.554-60.406 29.176-2.009 2.427-3.903 4.549-5.593 6.441-8.167 9.147-14.617 16.371-9.001 32.821.497 1.438 4.508 16.701 5.14 18.979l-35.423 78.704-80.298.497v-14.147c8.825-5.601 16.778-12.138 23.363-19.316 11.557-12.598 18.47-26.448 20.304-40.454h14.084c11.297 0 20.488-9.191 20.488-20.488v-38.562c0-.003 0-.005 0-.008-.009-38.269-13.678-71.02-39.526-94.709-23.253-21.352-54.326-33.111-87.495-33.111s-64.243 11.759-87.492 33.107c-25.239 23.132-38.859 54.898-39.5 92.001-.119.893-.203 1.797-.203 2.721v35.379c0 11.297 9.178 20.488 20.458 20.488h13.784c1.138 15.085 8.194 30.085 20.618 43.634 6.823 7.442 15.111 14.2 24.325 19.935v13.577h-13.343c-30.433 0-60.487 11.06-84.623 31.143-23.044 19.173-37.985 44.568-42.585 72.098h-16.856c-11.517 0-20.888 9.371-20.888 20.889v18.905h-10.62c-7.028 0-12.746 5.719-12.746 12.747v64.652c0 7.028 5.718 12.746 12.746 12.746h472.501c7.044 0 12.775-5.718 12.775-12.746v-64.652c0-7.028-5.731-12.746-12.775-12.746h-10.619v-18.905c0-11.518-9.371-20.889-20.888-20.889h-65.132l35.72-21.761c1.312-.799 2.348-1.983 2.965-3.39l20.441-46.56c1.665-3.793-.06-8.217-3.852-9.882-3.791-1.665-8.217.06-9.882 3.852l-19.492 44.399-54.73 33.343h-16.845c-11.517 0-20.888 9.371-20.888 20.889v18.905h-146.095v-18.905c0-8.873-5.57-16.451-13.389-19.473v-19.289c0-4.142-3.357-7.5-7.5-7.5s-7.5 3.358-7.5 7.5v17.873h-71.204c9.663-49.36 58.081-88.242 111.961-88.242h13.844c3.366 25.414 23.564 45.012 47.91 45.012 24.345 0 44.539-19.62 47.886-45.055l85.703-.531c2.934-.019 5.588-1.746 6.792-4.422l35.705-79.33 42.862 15.049-20.312 46.261c-1.665 3.792.06 8.217 3.852 9.882 3.795 1.665 8.218-.06 9.883-3.852 0 0 46.109-102.915 46.191-103.157 4.707-13.865 4.474-27.263-.675-38.748zm-170.915 268.02c0-3.247 2.642-5.889 5.889-5.889h110.807c3.247 0 5.889 2.642 5.889 5.889v18.905h-122.585zm145.979 33.905v60.145h-119.673l-8.076-26.236c-3.166-10.037-10.328-11.121-13.26-11.121h-71.788c-4.143 0-7.5 3.358-7.5 7.5s3.357 7.5 7.5 7.5h70.522c.064.162.134.355.206.584l6.702 21.773h-197.318l6.686-21.723c.079-.251.154-.46.224-.634h73.959c4.143 0 7.5-3.358 7.5-7.5s-3.357-7.5-7.5-7.5h-75.229c-2.932 0-10.093 1.083-13.274 11.171l-8.061 26.186h-119.643v-60.145zm-327.961-39.794c3.247 0 5.889 2.642 5.889 5.889v18.905h-122.585v-18.905c0-3.247 2.642-5.889 5.889-5.889zm206.632-212.693c0 2.975-2.514 5.488-5.488 5.488h-13.572v-40.579c0-.009 0-.017 0-.026 0-.001 0-.002 0-.003s0-.003 0-.004c.046-3.012-.041-5.976-.236-8.896h13.809c3.026 0 5.488 2.449 5.488 5.459v38.561zm-205.159-35.088v37.393h-13.601c-3.01 0-5.458-2.462-5.458-5.488v-35.379c0-3.01 2.448-5.459 5.458-5.459h13.833c-.195 2.933-.28 5.909-.232 8.933zm-13.601-23.932c-1.295 0-2.557.134-3.785.366 3.135-20.542 11.935-44.112 33.17-63.575 20.479-18.804 47.951-29.16 77.353-29.16s56.872 10.356 77.356 29.165c21.243 19.469 30.039 43.052 33.169 63.601-1.292-.256-2.625-.396-3.991-.396h-15.956c-3.544-15.843-10.986-29.865-22.075-41.298-17.131-17.662-42.091-28.013-68.481-28.398-.072-.001-.146-.001-.219 0-26.413.385-51.385 10.741-68.515 28.411-11.081 11.431-18.516 25.448-22.053 41.285h-15.973zm118.482 24.684c-5.354-.769-12.929-2.658-21.871-6.346-15.028-6.198-26.281-14.409-29.368-21.427-1.305-2.966-4.371-4.765-7.589-4.445-3.225.312-5.884 2.66-6.594 5.821-3.056 13.601-11.489 15.229-24.02 14.937 1.711-17.295 8.429-32.386 19.755-44.069 14.354-14.807 35.437-23.497 57.855-23.852 22.396.354 43.467 9.041 57.823 23.841 11.939 12.31 18.783 28.397 20.028 46.867-24.825-2.183-45.684-13.729-50.759-18.803-2.965-2.963-7.63-3.214-11.094-.599-5.308 4.007-9.079 16.448-4.166 28.075zm22.039 136.288c0 20.684-14.975 37.512-33.382 37.512-18.424 0-33.412-16.828-33.412-37.512v-13.045c2.912 1.328 5.873 2.565 8.883 3.681 8.862 3.27 16.501 4.793 24.042 4.793 7.553 0 15.185-1.524 24.023-4.797 3.341-1.239 6.627-2.619 9.847-4.118v13.486zm-15.059-23.433c-7.115 2.635-13.093 3.863-18.811 3.863-5.713 0-11.702-1.228-18.838-3.862-34.863-12.925-59.212-39.873-59.212-65.532v-43.783c9.853.252 24.913-.545 33.656-13.468 10.499 9.958 26.815 17.52 40.167 21.578 6.409 1.947 14.167 3.747 20.941 3.747 4.275 0 8.16-.717 11.066-2.565 2.195-1.392 3.602-3.523 3.96-6.002.602-4.169-1.936-7.069-3.617-8.988-.703-.803-1.43-1.633-1.817-2.331-1.181-2.122-1.646-4.271-1.73-6.175 12.094 7.619 32.28 15.42 53.473 17.04v40.947c0 25.653-24.36 52.6-59.238 65.531zm226.152-94.385-19.376 42.304-46.876-16.459c-.546-2.009-1.184-4.436-1.813-6.83-1.609-6.125-2.633-9.977-3.26-11.794-2.775-8.129-1.606-9.439 6.002-17.961 1.967-2.203 4.196-4.699 6.645-7.703.425-.521.778-1.097 1.05-1.712 10.005-22.664 28.138-27.488 41.668-22.217 13.271 5.173 23.308 20.265 15.96 42.372z"></path> <path d="m212.228 169.37c-4.143 0-7.5 3.358-7.5 7.5v5.562c0 4.142 3.357 7.5 7.5 7.5s7.5-3.358 7.5-7.5v-5.562c0-4.142-3.358-7.5-7.5-7.5z"></path> <path d="m286.482 169.37c-4.143 0-7.5 3.358-7.5 7.5v5.562c0 4.142 3.357 7.5 7.5 7.5s7.5-3.358 7.5-7.5v-5.562c0-4.142-3.358-7.5-7.5-7.5z"></path> <path d="m259.871 214.455-9.799 4.353-9.8-4.353c-3.786-1.682-8.217.024-9.899 3.81-1.682 3.785.024 8.217 3.81 9.898l12.787 5.68c1.967.843 4.174.903 6.148.026l12.844-5.705c3.785-1.682 5.491-6.113 3.81-9.899-1.683-3.786-6.116-5.492-9.901-3.81z"></path> <path d="m62.717 468.033h32.425c4.143 0 7.5-3.358 7.5-7.5s-3.357-7.5-7.5-7.5h-32.425c-4.143 0-7.5 3.358-7.5 7.5s3.357 7.5 7.5 7.5z"></path> <path d="m402.852 468.033h32.424c4.143 0 7.5-3.358 7.5-7.5s-3.357-7.5-7.5-7.5h-32.424c-4.143 0-7.5 3.358-7.5 7.5s3.357 7.5 7.5 7.5z"></path> </g> </svg> 