<?xml version="1.0" encoding="UTF-8"?> <svg xmlns="http://www.w3.org/2000/svg" xmlns:xlink="http://www.w3.org/1999/xlink" width="1502px" height="1501px" viewBox="0 0 1502 1501"> <title>coin (1)</title> <g id="Page-1" stroke="none" stroke-width="1" fill="none" fill-rule="evenodd"> <g id="coin-(1)"> <g id="Group-4" fill-rule="nonzero"> <path d="M1502,750.5 C1502,1164.99935 1165.7755,1501 751,1501 C336.224499,1501 0,1164.99935 0,750.5 C0,680.787779 9.51842529,613.281561 27.3075735,549.26992 C54.1352614,452.70617 99.7577707,364.011474 159.998011,287.35597 C297.508168,112.372748 511.119826,0 751,0 C1165.7755,0 1502,336.000647 1502,750.5 Z" id="Path" fill="#FEC007"></path> <path d="M1408.39883,782.582175 C1390.59824,782.582175 1376.16837,768.160967 1376.16837,750.371057 C1376.16837,406.204894 1096.00206,126.206647 751.629322,126.206647 C733.828735,126.206647 719.39887,111.785438 719.39887,93.9955287 C719.39887,76.2056193 733.828735,61.7844109 751.629322,61.7844109 C1131.54483,61.7844109 1440.63345,370.687613 1440.63345,750.375227 C1440.63345,768.160967 1426.19941,782.582175 1408.39883,782.582175 Z" id="Path" fill="#FCE790"></path> <path d="M751.625151,1438.96187 C371.709639,1438.96187 62.6210241,1130.05867 62.6210241,750.371057 C62.6210241,732.576979 77.0508886,718.15994 94.8514759,718.15994 C112.652063,718.15994 127.081928,732.581148 127.081928,750.371057 C127.081928,1094.53722 407.248238,1374.53547 751.620979,1374.53547 C769.421566,1374.53547 783.851431,1388.95668 783.851431,1406.74659 C783.851431,1424.5365 769.425738,1438.96187 751.625151,1438.96187 Z" id="Path" fill="#FCE790"></path> <circle id="Oval" fill="#FE9700" cx="751.5" cy="750.5" r="514.5"></circle> <circle id="Oval" fill="#FCE790" cx="751" cy="751" r="426"></circle> <path d="M751.62527,965.995099 C668.161865,965.995099 600.257027,910.407298 600.257027,842.082275 C600.257027,824.293511 614.700689,809.880779 632.518297,809.880779 C650.335905,809.880779 664.779568,824.297679 664.779568,842.082275 C664.779568,874.337954 704.548703,901.592107 751.621095,901.592107 C797.140135,901.592107 835.831946,876.109328 838.337351,845.262412 C827.447189,829.515939 770.440865,797.74374 735.891324,778.487863 C649.266932,730.20229 600.257027,700.830824 600.257027,658.663786 C600.257027,590.338763 668.161865,534.750962 751.62527,534.750962 C835.088676,534.750962 902.993514,590.338763 902.993514,658.663786 C902.993514,676.45255 888.549851,690.865282 870.732243,690.865282 C852.914635,690.865282 838.470973,676.448382 838.470973,658.663786 C838.470973,626.408107 798.701838,599.153954 751.629446,599.153954 C706.110405,599.153954 667.418595,624.636733 664.913189,655.483649 C675.803351,671.225954 732.8055,702.993985 767.355041,722.254031 C853.983608,770.539603 902.997689,799.911069 902.997689,842.082275 C902.993514,910.407298 835.092851,965.995099 751.62527,965.995099 Z" id="Path" fill="#FE9700"></path> <path d="M751.62527,1020.34085 C733.807662,1020.34085 719.364,1005.92395 719.364,988.139359 L719.364,512.602534 C719.364,494.813771 733.807662,480.401038 751.62527,480.401038 C769.442878,480.401038 783.886541,494.817939 783.886541,512.602534 L783.886541,988.143527 C783.890716,1005.92812 769.442878,1020.34085 751.62527,1020.34085 Z" id="Path" fill="#FE9700"></path> </g> <g id="Group" transform="translate(62.000000, 61.000000)"></g> <g id="Group" transform="translate(600.000000, 480.000000)"></g> </g> </g> </svg> 