<?xml version="1.0" encoding="UTF-8"?> <svg xmlns="http://www.w3.org/2000/svg" height="512" viewBox="0 0 512 512" width="512"> <g id="flat"> <path d="m368.367 464.367h-112v24h-112v-416l48-16h128l48 16z" fill="#fbb540"></path> <path d="m256 400v88h-112v-88z" fill="#0bafea"></path> <path d="m367.026 187.362a19.8 19.8 0 0 0 -18.826-13.682 19.8 19.8 0 0 0 -37.662 0 19.8 19.8 0 0 0 -11.638 35.82 19.8 19.8 0 0 0 30.469 22.137 19.8 19.8 0 0 0 30.47-22.137 19.806 19.806 0 0 0 7.187-22.138z" fill="#f55648"></path> <path d="m144.367 72.367-31.467 20.978a115.976 115.976 0 0 0 -28.455 26.918l-36.078 48.1 56 64 40-48z" fill="#fbb540"></path> <path d="m112 144-3.06 1.02a47.991 47.991 0 0 1 -39.87-4.38l-.38-.23 15.39-20.51a114.464 114.464 0 0 1 10.91-12.56 48.07 48.07 0 0 1 17.01 36.66z" fill="#0296e5"></path> <path d="m368 72 31.467 20.978a116.012 116.012 0 0 1 28.455 26.922l36.078 48.1-56 64-40-48z" fill="#fbb540"></path> <path d="m446 144h-6a35.1 35.1 0 0 1 -33.3 24h-6.7l1.86-7.46a46.105 46.105 0 0 1 30.14-32.54h2z" fill="#0296e5"></path> <path d="m144 200h78.794a23.424 23.424 0 0 0 1.206-7.442c0-13.259-10.515-24.434-23.773-24.557a23.923 23.923 0 0 0 -17.439 7.282 32.006 32.006 0 0 0 -30.888-23.283 31.32 31.32 0 0 0 -7.9 1.033z" fill="#eaeae8"></path> <path d="m317 56h-123l22-32h80z" fill="#f7ba61"></path> <g fill="#ea9d2d"> <path d="m216 24 8 72 32 56-56-32v-16l-24-24z"></path> <path d="m170.745 270.222a8 8 0 0 1 -8-8v-14.222a8 8 0 0 1 16 0v14.222a8 8 0 0 1 -8 8z"></path> <path d="m170.745 384a8 8 0 0 1 -8-8v-14.222a8 8 0 0 1 16 0v14.222a8 8 0 0 1 -8 8z"></path> <path d="m216 365.255a7.976 7.976 0 0 1 -5.657-2.343l-10.056-10.057a8 8 0 1 1 11.313-11.313l10.057 10.058a8 8 0 0 1 -5.657 13.655z"></path> <path d="m238.222 320h-14.222a8 8 0 0 1 0-16h14.222a8 8 0 0 1 0 16z"></path> <path d="m205.943 284.8a8 8 0 0 1 -5.656-13.657l10.056-10.057a8 8 0 1 1 11.314 11.314l-10.057 10.058a7.971 7.971 0 0 1 -5.657 2.342z"></path> </g> <path d="m144 424h32a8 8 0 0 1 0 16h-32z" fill="#0a9acd"></path> <path d="m224 440h-16a8 8 0 0 1 0-16h16a8 8 0 0 1 0 16z" fill="#0a9acd"></path> <path d="m208 464h-32a8 8 0 0 1 0-16h32a8 8 0 0 1 0 16z" fill="#0a9acd"></path> <path d="m368 305.653a126.1 126.1 0 0 0 -76.236-25.653h-3.764l6.195 12.391a35.473 35.473 0 0 0 31.729 19.609h2.076l5.469 8.2a35.475 35.475 0 0 0 29.516 15.8h5.015z" fill="#029532"></path> <circle cx="329.365" cy="200" fill="#eaeae8" r="10"></circle> <path d="m446 144h-6a35.1 35.1 0 0 1 -33.3 24h-6.7l1.86-7.46a46.105 46.105 0 0 1 30.14-32.54h2z" fill="#bb5a8f"></path> <path d="m112 144-3.06 1.02a47.991 47.991 0 0 1 -39.87-4.38l-.38-.23 15.39-20.51a114.464 114.464 0 0 1 10.91-12.56 48.07 48.07 0 0 1 17.01 36.66z" fill="#029532"></path> <path d="m256 352v112h56z" fill="#d18d28"></path> <path d="m199.19 312a28.453 28.453 0 0 1 -55.19 9.72v-19.44a28.453 28.453 0 0 1 55.19 9.72z" fill="#fd7422"></path> <path d="m256 352 14.977 13v-222l-14.977 9z" fill="#ea9d2d"></path> <path d="m256 352 56 112 32-64z" fill="#f7ba61"></path> <path d="m296 24-8 72-32 56 56-32v-16l24-24z" fill="#ea9d2d"></path> <path d="m219.556 56 4.444 40 32 56 32-56 4.444-40z" fill="#d18d28"></path> <path d="m270.977 143-14.977 9 .004 8 14.973-8.5z" fill="#d18d28"></path> </g> </svg> 