<?xml version="1.0" encoding="UTF-8"?> <svg xmlns="http://www.w3.org/2000/svg" xmlns:xlink="http://www.w3.org/1999/xlink" width="1502px" height="1501px" viewBox="0 0 1502 1501"> <title>Group 5</title> <g id="Page-1" stroke="none" stroke-width="1" fill="none" fill-rule="evenodd"> <g id="Group-5"> <g id="coin-(1)-copy-2" fill-rule="nonzero"> <path d="M1502,750.5 C1502,1164.99935 1165.7755,1501 751,1501 C336.224499,1501 0,1164.99935 0,750.5 C0,680.787779 9.51842529,613.281561 27.3075735,549.26992 C54.1352614,452.70617 99.7577707,364.011474 159.998011,287.35597 C297.508168,112.372748 511.119826,0 751,0 C1165.7755,0 1502,336.000647 1502,750.5 Z" id="Path" fill="#FEC007"></path> <g id="Group" transform="translate(62.000000, 61.000000)" fill="#FCE790"> <path d="M1346.39883,721.582175 C1328.59824,721.582175 1314.16837,707.160967 1314.16837,689.371057 C1314.16837,345.204894 1034.00206,65.2066465 689.629322,65.2066465 C671.828735,65.2066465 657.39887,50.7854381 657.39887,32.9955287 C657.39887,15.2056193 671.828735,0.784410876 689.629322,0.784410876 C1069.54483,0.784410876 1378.63345,309.687613 1378.63345,689.375227 C1378.63345,707.160967 1364.19941,721.582175 1346.39883,721.582175 Z" id="Path"></path> <path d="M689.625151,1377.96187 C309.709639,1377.96187 0.621024096,1069.05867 0.621024096,689.371057 C0.621024096,671.576979 15.0508886,657.15994 32.8514759,657.15994 C50.6520633,657.15994 65.0819277,671.581148 65.0819277,689.371057 C65.0819277,1033.53722 345.248238,1313.53547 689.620979,1313.53547 C707.421566,1313.53547 721.851431,1327.95668 721.851431,1345.74659 C721.851431,1363.5365 707.425738,1377.96187 689.625151,1377.96187 Z" id="Path"></path> </g> <circle id="Oval" fill="#FE9700" cx="751.5" cy="750.5" r="514.5"></circle> <circle id="Oval" fill="#FCE790" cx="751" cy="751" r="426"></circle> </g> <g id="xrp-xrp-logo" transform="translate(495.000000, 539.000000)" fill="#FE9700"> <path d="M437,0 L511,0 L357,152.48 C301.23,207.67 210.81,207.67 155,152.48 L0.94,0 L75,0 L192,115.83 C227.470619,150.789199 284.439381,150.789199 319.91,115.83 L437,0 Z" id="Path"></path> <path d="M74.05,424 L0,424 L155,270.58 C210.77,215.39 301.19,215.39 357,270.58 L512,424 L438,424 L320,307.23 C284.529381,272.270801 227.560619,272.270801 192.09,307.23 L74.05,424 Z" id="Path"></path> </g> </g> </g> </svg> 