<?xml version="1.0" encoding="UTF-8"?> <svg xmlns="http://www.w3.org/2000/svg" xmlns:xlink="http://www.w3.org/1999/xlink" width="273px" height="26px" viewBox="0 0 273 26"> <title>WATCH &amp; LISTEN</title> <g id="Page-1" stroke="none" stroke-width="1" fill="none" fill-rule="evenodd"> <g id="WATCH-&amp;-LISTEN" transform="translate(0.616000, 0.554000)" fill-rule="nonzero"> <path d="M13.984,24.446 L17.28,16.318 L20.608,24.446 L26.016,24.446 L34.592,1.726 L27.808,1.726 L22.912,17.214 L21.28,12.574 L25.12,1.726 L19.392,1.726 L17.28,8.734 L15.2,1.726 L9.472,1.726 L13.248,12.574 L11.68,17.214 L6.752,1.726 L0,1.726 L8.576,24.446 L13.984,24.446 Z M40.512,24.446 L41.856,19.998 L47.904,19.998 L49.28,24.446 L55.616,24.446 L48.384,1.726 L41.408,1.726 L34.144,24.446 L40.512,24.446 Z M46.912,15.838 L42.784,15.838 L44.896,7.838 L46.912,15.838 Z M68.672,24.446 L68.672,7.166 L75.2,7.166 L75.2,1.726 L55.872,1.726 L55.872,7.166 L62.432,7.166 L62.432,24.446 L68.672,24.446 Z M87.648,24.638 C88.9493333,24.638 90.2613333,24.43 91.584,24.014 C92.9066667,23.598 94.0906667,22.9953333 95.136,22.206 C96.1813333,21.4166667 96.928,20.4673333 97.376,19.358 L97.376,19.358 L92.288,16.318 C92.032,17.0006667 91.6586667,17.5446667 91.168,17.95 C90.6773333,18.3553333 90.1333333,18.6486667 89.536,18.83 C88.9386667,19.0113333 88.352,19.102 87.776,19.102 C86.9653333,19.102 86.2346667,18.942 85.584,18.622 C84.9333333,18.302 84.384,17.8593333 83.936,17.294 C83.488,16.7286667 83.1466667,16.0833333 82.912,15.358 C82.6773333,14.6326667 82.56,13.8753333 82.56,13.086 C82.56,12.382 82.6613333,11.678 82.864,10.974 C83.0666667,10.27 83.376,9.63 83.792,9.054 C84.208,8.478 84.7413333,8.014 85.392,7.662 C86.0426667,7.31 86.816,7.134 87.712,7.134 C88.288,7.134 88.88,7.214 89.488,7.374 C90.096,7.534 90.6613333,7.81666667 91.184,8.222 C91.7066667,8.62733333 92.1066667,9.20333333 92.384,9.95 L92.384,9.95 L97.152,6.558 C96.3626667,5.06466667 95.1573333,3.86466667 93.536,2.958 C91.9146667,2.05133333 90.016,1.598 87.84,1.598 C86.0266667,1.598 84.4,1.92333333 82.96,2.574 C81.52,3.22466667 80.2986667,4.094 79.296,5.182 C78.2933333,6.27 77.5306667,7.48066667 77.008,8.814 C76.4853333,10.1473333 76.224,11.5073333 76.224,12.894 C76.224,14.3446667 76.5013333,15.7686667 77.056,17.166 C77.6106667,18.5633333 78.3946667,19.822 79.408,20.942 C80.4213333,22.062 81.6266667,22.958 83.024,23.63 C84.4213333,24.302 85.9626667,24.638 87.648,24.638 Z M105.824,24.446 L105.824,15.55 L113.44,15.55 L113.44,24.446 L119.68,24.446 L119.68,1.726 L113.44,1.726 L113.44,10.11 L105.824,10.11 L105.824,1.726 L99.584,1.726 L99.584,24.446 L105.824,24.446 Z" id="WATCH" fill="#FFFFFF"></path> <path d="M138.522,24.786 C140.040667,24.786 141.548,24.497 143.044,23.919 C143.542667,23.7263333 144.026852,23.4996667 144.496556,23.239 L144.764,23.085 L146.036,24.446 L154.502,24.446 L149.114,18.759 L149.144787,18.7095562 C149.432613,18.2232288 149.697371,17.706858 149.939059,17.1604438 L150.116,16.745 C150.864,14.9203333 151.249333,12.7726667 151.272,10.302 L151.272,10.302 L146.07,10.302 C146.07,11.866 145.860333,13.2373333 145.441,14.416 L145.441,14.416 L145.315,14.751 L142.493,11.772 L142.519429,11.7501224 L142.519429,11.7501224 L142.891,11.424 C143.741,10.6533333 144.409667,9.80333333 144.897,8.874 C145.384333,7.94466667 145.628,6.92466667 145.628,5.814 C145.628,4.43133333 145.276667,3.315 144.574,2.465 C143.871333,1.615 142.981667,0.991666667 141.905,0.595 C140.828333,0.198333333 139.700667,0 138.522,0 C137.184667,0 135.977667,0.243666667 134.901,0.731 C133.824333,1.21833333 132.98,1.92666667 132.368,2.856 C131.756,3.78533333 131.45,4.90733333 131.45,6.222 C131.45,6.97 131.569,7.66133333 131.807,8.296 C132.045,8.93066667 132.447333,9.61066667 133.014,10.336 C133.139926,10.4971852 133.275366,10.6656461 133.420321,10.8413827 L133.449,10.877 L133.15,11.118 C132.3765,11.7526667 131.711464,12.4827813 131.154891,13.3083438 L130.923,13.668 C130.322333,14.6426667 130.022,15.7873333 130.022,17.102 C130.022,18.3486667 130.339333,19.5613333 130.974,20.74 C131.608667,21.9186667 132.560667,22.8876667 133.83,23.647 C135.099333,24.4063333 136.663333,24.786 138.522,24.786 Z M138.433,7.592 L138.392109,7.55596875 C138.023953,7.22623958 137.755583,6.95725 137.587,6.749 C137.394333,6.511 137.298,6.24466667 137.298,5.95 C137.298,5.70066667 137.343333,5.48533333 137.434,5.304 C137.524667,5.12266667 137.666333,4.97533333 137.859,4.862 C138.051667,4.74866667 138.272667,4.692 138.522,4.692 C138.884667,4.692 139.173667,4.794 139.389,4.998 C139.604333,5.202 139.712,5.49666667 139.712,5.882 C139.712,6.26733333 139.581667,6.60166667 139.321,6.885 C139.1255,7.0975 138.84075,7.3259375 138.46675,7.5703125 L138.433,7.592 Z M139.202,19.754 C138.476667,19.754 137.893,19.601 137.451,19.295 C137.009,18.989 136.691667,18.6263333 136.499,18.207 C136.306333,17.7876667 136.21,17.4193333 136.21,17.102 C136.21,16.6486667 136.368667,16.235 136.686,15.861 C136.867333,15.6472857 137.091224,15.4335714 137.357673,15.2198571 L137.388,15.196 L141.225,19.3 L140.998753,19.3940617 C140.470704,19.5997407 139.955247,19.7172716 139.452383,19.7466543 L139.202,19.754 Z" id="&amp;" fill="#651FFF"></path> <path d="M179.994,24.446 L179.994,19.006 L169.69,19.006 L169.69,1.726 L163.45,1.726 L163.45,24.446 L179.994,24.446 Z M188.41,24.446 L188.41,1.726 L182.17,1.726 L182.17,24.446 L188.41,24.446 Z M200.666,24.734 C201.732667,24.734 202.778,24.6113333 203.802,24.366 C204.826,24.1206667 205.754,23.7206667 206.586,23.166 C207.418,22.6113333 208.079333,21.87 208.57,20.942 C209.060667,20.014 209.306,18.8673333 209.306,17.502 C209.306,16.0726667 209.028667,14.926 208.474,14.062 C207.919333,13.198 207.13,12.4886667 206.106,11.934 C205.082,11.3793333 203.866,10.8886667 202.458,10.462 C201.583333,10.1846667 200.831333,9.95 200.202,9.758 C199.572667,9.566 199.087333,9.35266667 198.746,9.118 C198.404667,8.88333333 198.234,8.574 198.234,8.19 C198.234,7.78466667 198.404667,7.49666667 198.746,7.326 C199.087333,7.15533333 199.524667,7.07 200.058,7.07 C200.740667,7.07 201.434,7.17666667 202.138,7.39 C202.842,7.60333333 203.492667,7.84333333 204.09,8.11 C204.687333,8.37666667 205.167333,8.61666667 205.53,8.83 C205.892667,9.04333333 206.074,9.15 206.074,9.15 L206.074,9.15 L208.762,3.998 C208.079333,3.65666667 207.284667,3.294 206.378,2.91 C205.471333,2.526 204.500667,2.20066667 203.466,1.934 C202.431333,1.66733333 201.359333,1.534 200.25,1.534 C198.756667,1.534 197.364667,1.82733333 196.074,2.414 C194.783333,3.00066667 193.743333,3.85933333 192.954,4.99 C192.164667,6.12066667 191.77,7.52866667 191.77,9.214 C191.77,10.3233333 191.972667,11.2673333 192.378,12.046 C192.783333,12.8246667 193.412667,13.4966667 194.266,14.062 C195.119333,14.6273333 196.207333,15.134 197.53,15.582 C198.447333,15.8806667 199.284667,16.142 200.042,16.366 C200.799333,16.59 201.412667,16.8246667 201.882,17.07 C202.351333,17.3153333 202.586,17.662 202.586,18.11 C202.586,18.4086667 202.452667,18.6486667 202.186,18.83 C201.919333,19.0113333 201.444667,19.102 200.762,19.102 C199.887333,19.102 199.018,18.974 198.154,18.718 C197.29,18.462 196.506,18.174 195.802,17.854 C195.098,17.534 194.532667,17.246 194.106,16.99 C193.679333,16.734 193.466,16.606 193.466,16.606 L193.466,16.606 L190.778,22.078 C191.695333,22.6113333 192.708667,23.0753333 193.818,23.47 C194.927333,23.8646667 196.074,24.174 197.258,24.398 C198.442,24.622 199.578,24.734 200.666,24.734 Z M223.226,24.446 L223.226,7.166 L229.754,7.166 L229.754,1.726 L210.426,1.726 L210.426,7.166 L216.986,7.166 L216.986,24.446 L223.226,24.446 Z M248.218,24.446 L248.218,19.006 L238.266,19.006 L238.266,15.422 L246.522,15.422 L246.522,10.366 L238.266,10.366 L238.266,7.166 L247.93,7.166 L247.93,1.726 L232.026,1.726 L232.026,24.446 L248.218,24.446 Z M257.37,24.446 L257.37,13.278 L266.394,24.446 L271.354,24.446 L271.354,1.726 L265.114,1.726 L265.114,13.278 L255.994,1.726 L251.13,1.726 L251.13,24.446 L257.37,24.446 Z" id="LISTEN" fill="#FFFFFF"></path> </g> </g> </svg> 